<?xml version="1.0" encoding="utf-8"?>
<!-- Generator: Adobe Illustrator 28.2.0, SVG Export Plug-In . SVG Version: 6.00 Build 0)  -->
<svg version="1.1" id="Calque_1" xmlns="http://www.w3.org/2000/svg" xmlns:xlink="http://www.w3.org/1999/xlink" x="0px" y="0px"
	 viewBox="0 0 500 500" style="enable-background:new 0 0 500 500;" xml:space="preserve">
<style type="text/css">
	.st0{display:none;}
	.st1{fill:#B9B9B9;}
</style>
<g id="FOND" class="st0">
</g>
<g id="Repere" class="st0">
</g>
<g id="rond_blanc_x2B_color">
</g>
<g id="rond_blanc_x2B_color_-_vignette">
</g>
<g id="Carré_blanc_x2B_color_-_vignette">
</g>
<g id="FULL_rond_blanc_x2B_color">
</g>
<g id="FULL_rond_blanc_x2B_color_vignette">
</g>
<g id="FULL_carré_blanc_x2B_color_vignette">
</g>
<g id="Canal-U_rond_noir_FULL">
</g>
<g id="Canal-U_rond_noir">
	<path class="st1" d="M250,65.8C148.3,65.8,65.8,148.3,65.8,250S148.3,434.2,250,434.2S434.2,351.7,434.2,250S351.7,65.8,250,65.8z
		 M261.9,308.9c13.5,0,25.3-4.9,35-14.6c9.7-9.7,14.6-21.5,14.6-35.2V158.4c0-3.3,2.7-5.9,5.9-5.9s5.9,2.7,5.9,5.9v100.8
		c0,16.9-6.1,31.6-18.1,43.5c-12,12-26.6,18.1-43.4,18.1c-16.9,0-31.6-6.1-43.6-18.1s-18.1-26.6-18.1-43.5v-89.4
		c0-2.7-0.8-4.8-2.7-6.7c-1.9-1.9-3.9-2.7-6.6-2.7c-2.7,0-4.8,0.8-6.7,2.7c-1.9,1.9-2.7,3.9-2.7,6.6v89.4c0,22.3,7.7,40.9,23.6,56.7
		c15.6,15.7,34.7,23.6,56.7,23.6c22.2,0,40.7-7.7,56.6-23.6c15.9-15.8,23.6-34.4,23.6-56.7V158.4c0-3.3,2.7-5.9,5.9-5.9
		s5.9,2.7,5.9,5.9v100.8c0,25.6-8.9,47-27.1,65.1c-18.1,18.2-39.4,27.1-65,27.1c-25.3,0-47.2-9.1-65.1-27.1
		c-18.2-18.1-27.1-39.5-27.1-65.1v-89.4c0-5.9,2.1-10.9,6.2-15.1c4.1-4.1,9.2-6.2,15.1-6.2s10.9,2.1,15.1,6.2
		c4.1,4.1,6.2,9.2,6.2,15.1v89.4c0,13.6,4.9,25.5,14.6,35.2C236.4,304,248.2,308.9,261.9,308.9z M343.8,350
		c-22.9,21-50.4,31.7-81.9,31.7c-33.7,0-62.8-12.1-86.6-36.1c-23.8-23.7-35.9-52.8-35.9-86.5v-89.4c0-14,5.2-26.6,15.1-36.5
		c9.8-9.8,22.4-15.1,36.5-15.1c11.8,0,22.6,3.7,31.6,10.8c2.8,2.2,2.9,6.3,0.4,8.8c-2.1,2.1-5.5,2.3-7.9,0.4
		c-6.9-5.3-15.1-8.1-24.1-8.1c-10.8,0-20.5,4-28.1,11.6c-7.6,7.6-11.6,17.3-11.6,28.1v89.4c0,30.4,10.9,56.6,32.5,78.1
		c21.5,21.6,47.8,32.6,78.2,32.6c28.4,0,53.2-9.6,73.9-28.6c2.3-2.1,5.9-2.1,8.1,0.1l0.2,0.2C346.4,344,346.3,347.8,343.8,350z
		 M360.3,331.8c-0.3,0.7-0.8,1.4-1.3,1.9c-0.5,0.5-1.2,1-1.9,1.3c-0.8,0.3-1.5,0.4-2.3,0.4c-0.8,0-1.5-0.1-2.3-0.4
		c-0.7-0.3-1.4-0.7-1.9-1.3c-0.6-0.5-1-1.2-1.3-1.9s-0.5-1.5-0.5-2.3c0-0.8,0.2-1.5,0.5-2.3c0.3-0.7,0.7-1.4,1.3-1.9
		c0.2-0.3,0.5-0.5,0.9-0.8c0.3-0.2,0.7-0.4,1-0.5c0.4-0.1,0.7-0.2,1.1-0.3c2-0.4,4,0.2,5.3,1.6c0.5,0.5,1,1.2,1.3,1.9
		c0.3,0.8,0.4,1.5,0.4,2.3C360.7,330.3,360.6,331.1,360.3,331.8z"/>
</g>
<g id="Canal-U_rond_blanc">
</g>
<g id="Canal-U_rond_blanc_FULL">
</g>
<g id="full_carré_blanc__x2B__color">
</g>
<g id="Carré_blanc__x2B__color">
</g>
<g id="full_carré_noir">
</g>
<g id="carré_noir_00000021811254520814416130000011224301624703021982_">
</g>
<g id="full_carré_blanc">
</g>
<g id="Carré_blanc">
</g>
</svg>
