<?xml version="1.0" encoding="utf-8"?>
<!-- Generator: Adobe Illustrator 25.4.1, SVG Export Plug-In . SVG Version: 6.00 Build 0)  -->
<svg version="1.1" xmlns="http://www.w3.org/2000/svg" xmlns:xlink="http://www.w3.org/1999/xlink" x="0px" y="0px"
	 viewBox="0 0 1818.4 524.7" style="enable-background:new 0 0 1818.4 524.7;" xml:space="preserve">
<style type="text/css">
	.st0{display:none;}
	.st1{display:inline;fill:#00005F;}
	.st2{fill:#0A8FBE;}
	.st3{fill:#FFFFFF;}
	.st4{fill:#00BEBE;}
	.st5{fill:#0FA0B9;}
	.st6{fill:#1164B4;}
	.st7{fill:#143CAA;}
	.st8{fill:#20208C;}
</style>
<g id="Background" class="st0">
	<rect x="-3.3" y="-2.6" class="st1" width="1825" height="530"/>
</g>
<g id="Contenu">
	<g>
		<g>
			<g>
				<g>
					<path class="st2" d="M942.8,320.1c-8.3,0-15.8-1.2-22.6-3.7c-6.8-2.5-12.1-6.1-16.1-10.8s-6.1-10.4-6.3-16.9h14.6
						c0.1,3.7,1.6,6.9,4.5,9.7c2.9,2.8,6.7,4.9,11.4,6.4c4.7,1.5,9.8,2.3,15.3,2.3c5.2,0,9.8-0.8,13.7-2.3c3.9-1.5,6.9-3.7,8.9-6.5
						c2.1-2.8,3.1-6.1,3.1-9.9c0-3.4-0.7-6-2.2-8c-1.5-2-4.4-3.8-8.6-5.5c-4.2-1.7-11-3.8-20.3-6.3c-9.7-2.6-17.1-5.2-22.4-7.8
						c-5.3-2.6-9.1-5.6-11.4-8.9c-2.3-3.4-3.4-7.5-3.4-12.5c0-5.9,1.7-11.1,5-15.6c3.3-4.5,8-8,14-10.5c6-2.5,13-3.7,20.8-3.7
						c8,0,15.2,1.2,21.6,3.6c6.4,2.4,11.5,6,15.4,10.7c3.9,4.7,5.9,10.3,6.2,16.8h-14.6c-0.2-3.8-1.6-7.1-4.1-9.8
						c-2.5-2.7-5.9-4.7-10.2-6.1c-4.3-1.4-9.1-2.1-14.5-2.2c-4.9-0.1-9.3,0.5-13.1,1.8c-3.8,1.3-6.8,3.2-8.9,5.7
						c-2.1,2.5-3.2,5.4-3.2,8.7c0,2.9,0.9,5.2,2.6,7.2c1.7,1.9,4.7,3.8,9,5.5c4.3,1.7,10.7,3.6,19.1,5.8c9.8,2.5,17.4,5.1,22.8,7.8
						s9.3,5.9,11.7,9.6c2.3,3.7,3.5,8.2,3.5,13.8c0,6.5-1.7,12.2-5,17c-3.3,4.8-8.1,8.5-14.3,11S951.4,320.1,942.8,320.1z"/>
					<path class="st2" d="M1049.2,320.2c-10.3,0-19.1-2.3-26.5-7s-13-11.2-16.9-19.5c-3.9-8.4-5.8-18-6-28.9
						c0.1-11.1,2.1-20.8,6-29.1c3.9-8.3,9.5-14.8,17-19.4c7.4-4.6,16.2-6.9,26.5-6.9c7,0,13.5,1.2,19.4,3.5c6,2.3,11,5.7,15.3,10.1
						c4.2,4.4,7.3,9.5,9.2,15.5l-14,4.5c-2.5-6.2-6.3-11.1-11.7-14.6c-5.3-3.5-11.4-5.2-18.4-5.2c-11.2,0-19.7,3.8-25.4,11.3
						c-5.7,7.5-8.7,17.7-8.8,30.4c0.1,8.5,1.4,15.9,4,22.1c2.6,6.3,6.4,11.1,11.6,14.5c5.1,3.4,11.3,5.1,18.7,5.1
						c7.1,0,13.1-1.6,18.1-4.9c5-3.2,8.9-8,11.5-14.4l14.4,4.3c-3.9,9.3-9.6,16.4-17.1,21.3C1068.6,317.8,1059.7,320.2,1049.2,320.2
						z"/>
					<path class="st2" d="M1115.2,192.4v-16h14.3v16H1115.2z M1115.2,317.3V212.3h14.3v104.9H1115.2z"/>
					<path class="st2" d="M1203.1,320.2c-10.1,0-18.9-2.3-26.5-6.8c-7.6-4.5-13.4-10.9-17.5-19.2c-4.1-8.3-6.2-17.9-6.2-29
						c0-11.4,2-21.3,6.1-29.7c4.1-8.4,9.8-14.9,17.3-19.4c7.4-4.5,16.2-6.8,26.2-6.8c10.3,0,19.1,2.4,26.5,7.1
						c7.4,4.7,12.9,11.6,16.7,20.5c3.8,8.9,5.5,19.5,5.2,31.8h-14.6v-5.1c-0.2-9.1-1.6-16.6-4.1-22.7c-2.5-6.1-6.3-10.7-11.2-13.8
						c-4.9-3.1-10.9-4.7-18.1-4.7c-7.5,0-13.8,1.6-19,4.9c-5.2,3.3-9.2,8.1-11.9,14.4c-2.7,6.3-4,14-4,23c0,8.8,1.3,16.3,4,22.5
						c2.7,6.2,6.6,11,11.8,14.2c5.2,3.3,11.4,4.9,18.7,4.9c5.2,0,9.9-0.6,14.1-1.8c4.2-1.2,7.9-3.2,11.2-5.9c3.2-2.7,5.9-6.3,8-10.6
						h13.6c-1.9,6.8-5.2,12.6-9.7,17.4c-4.5,4.8-9.9,8.5-16.2,10.9C1217.1,319,1210.3,320.2,1203.1,320.2z M1162.9,268.8v-12h80.2
						v12H1162.9z"/>
					<path class="st2" d="M1272.1,317.3l0.1-56h14.3v27.6l0.1,4.7l-0.1,23.7H1272.1z M1348,263.8c0-8.4-1-15.6-2.9-21.4
						c-1.9-5.9-5.1-10.5-9.4-13.9c-4.4-3.4-10.1-5.1-17.2-5.1c-6.7,0-12.5,1.5-17.2,4.5c-4.8,3-8.4,7.4-10.9,13.1
						c-2.5,5.7-3.8,12.5-3.8,20.4h-14.3c0-12,2.2-21.9,6.5-29.7c4.3-7.7,10-13.4,17-16.9c7-3.5,14.8-5.2,23.2-5.1
						c8.6,0.1,16.2,2.1,22.8,6.1c6.6,4,11.7,9.7,15.3,17.2c3.6,7.5,5.4,16.3,5.4,26.6v57.7H1348V263.8z"/>
					<path class="st2" d="M1431.2,320.2c-10.3,0-19.1-2.3-26.5-7s-13-11.2-16.9-19.5c-3.9-8.4-5.8-18-6-28.9
						c0.1-11.1,2.1-20.8,6-29.1c3.9-8.3,9.5-14.8,17-19.4c7.4-4.6,16.2-6.9,26.5-6.9c7,0,13.5,1.2,19.4,3.5c6,2.3,11,5.7,15.3,10.1
						c4.2,4.4,7.3,9.5,9.2,15.5l-14,4.5c-2.5-6.2-6.3-11.1-11.7-14.6c-5.3-3.5-11.4-5.2-18.4-5.2c-11.2,0-19.7,3.8-25.4,11.3
						c-5.7,7.5-8.7,17.7-8.8,30.4c0.1,8.5,1.4,15.9,4,22.1c2.6,6.3,6.4,11.1,11.6,14.5c5.1,3.4,11.3,5.1,18.7,5.1
						c7.1,0,13.1-1.6,18.1-4.9c5-3.2,8.9-8,11.5-14.4l14.4,4.3c-3.9,9.3-9.6,16.4-17.1,21.3C1450.6,317.8,1441.6,320.2,1431.2,320.2
						z"/>
					<path class="st2" d="M1539.6,320.2c-10.1,0-18.9-2.3-26.5-6.8c-7.6-4.5-13.4-10.9-17.5-19.2c-4.1-8.3-6.2-17.9-6.2-29
						c0-11.4,2-21.3,6.1-29.7c4.1-8.4,9.8-14.9,17.3-19.4c7.4-4.5,16.2-6.8,26.2-6.8c10.3,0,19.1,2.4,26.5,7.1
						c7.4,4.7,12.9,11.6,16.7,20.5c3.8,8.9,5.5,19.5,5.2,31.8h-14.6v-5.1c-0.2-9.1-1.6-16.6-4.1-22.7c-2.5-6.1-6.3-10.7-11.2-13.8
						c-4.9-3.1-10.9-4.7-18.1-4.7c-7.5,0-13.8,1.6-19,4.9c-5.2,3.3-9.2,8.1-11.9,14.4c-2.7,6.3-4,14-4,23c0,8.8,1.3,16.3,4,22.5
						c2.7,6.2,6.6,11,11.8,14.2c5.2,3.3,11.4,4.9,18.7,4.9c5.2,0,9.9-0.6,14.1-1.8c4.2-1.2,7.9-3.2,11.2-5.9c3.2-2.7,5.9-6.3,8-10.6
						h13.6c-1.9,6.8-5.2,12.6-9.7,17.4c-4.5,4.8-9.9,8.5-16.2,10.9C1553.7,319,1546.9,320.2,1539.6,320.2z M1499.5,268.8v-12h80.2
						v12H1499.5z"/>
					<path class="st2" d="M1648,320.1c-8.3,0-15.8-1.2-22.6-3.7c-6.8-2.5-12.1-6.1-16.1-10.8s-6.1-10.4-6.3-16.9h14.6
						c0.1,3.7,1.6,6.9,4.5,9.7c2.9,2.8,6.7,4.9,11.4,6.4c4.7,1.5,9.8,2.3,15.3,2.3c5.2,0,9.8-0.8,13.7-2.3c3.9-1.5,6.9-3.7,8.9-6.5
						c2.1-2.8,3.1-6.1,3.1-9.9c0-3.4-0.7-6-2.2-8c-1.5-2-4.4-3.8-8.6-5.5c-4.2-1.7-11-3.8-20.3-6.3c-9.7-2.6-17.1-5.2-22.4-7.8
						c-5.3-2.6-9.1-5.6-11.4-8.9c-2.3-3.4-3.4-7.5-3.4-12.5c0-5.9,1.7-11.1,5-15.6c3.3-4.5,8-8,14-10.5c6-2.5,13-3.7,20.8-3.7
						c8,0,15.2,1.2,21.6,3.6c6.4,2.4,11.5,6,15.4,10.7c3.9,4.7,5.9,10.3,6.2,16.8h-14.6c-0.2-3.8-1.6-7.1-4.1-9.8
						c-2.5-2.7-5.9-4.7-10.2-6.1c-4.3-1.4-9.1-2.1-14.5-2.2c-4.9-0.1-9.3,0.5-13.1,1.8c-3.8,1.3-6.8,3.2-8.9,5.7
						c-2.1,2.5-3.2,5.4-3.2,8.7c0,2.9,0.9,5.2,2.6,7.2c1.7,1.9,4.7,3.8,9,5.5c4.3,1.7,10.7,3.6,19.1,5.8c9.8,2.5,17.4,5.1,22.8,7.8
						s9.3,5.9,11.7,9.6c2.3,3.7,3.5,8.2,3.5,13.8c0,6.5-1.7,12.2-5,17c-3.3,4.8-8.1,8.5-14.3,11S1656.5,320.1,1648,320.1z"/>
				</g>
			</g>
		</g>
		<g>
			<path class="st3" d="M613,220.8h-85.9v21.7h83.2v30.2h-83.2v23.2h87v29.5H490.6V191.6H613V220.8z"/>
			<path class="st3" d="M819.4,325.3V191.6h37v133.7H819.4z"/>
			<path class="st3" d="M736.2,191.6h-53.6h-37v29.8v31.3v41v31.6h37v-31.6v-11.2h53.6c41.7,0,55.3-19.2,55.3-44.6v-2
				C791.6,210.2,778.4,191.6,736.2,191.6z M753.1,237.5c0,9.5-5.9,15.3-19.6,15.3h-45.7h-5.2v-31.3h5.2h45.7
				c13.7,0,19.6,5.9,19.6,15.3V237.5z"/>
		</g>
	</g>
	<g>
		<g>
			<g>
				<g>
					<polygon class="st4" points="136.1,135.9 136.1,162.9 364.4,162.9 364.4,391.3 391.4,391.3 391.4,135.9 					"/>
				</g>
				<g>
					<polygon class="st5" points="136.1,192.3 136.1,219.4 304.9,204.6 321.2,391.3 348.3,391.3 329.4,175.4 					"/>
				</g>
				<g>
					<polygon class="st2" points="136.1,243.4 136.1,270.8 253.1,250.2 277.9,391.3 305.4,391.3 275,218.9 					"/>
				</g>
				<g>
					<polygon class="st6" points="136.1,291.1 136.1,319.1 209.4,299.4 234,391.3 261.9,391.3 228.5,266.4 					"/>
				</g>
				<g>
					<polygon class="st7" points="136.1,335.7 136.1,364.4 174.4,350.5 189.2,391.3 218,391.3 190.5,315.9 					"/>
				</g>
				<g>
					<polygon class="st8" points="136.1,379.1 136.1,391.3 171,391.3 160.1,367.9 					"/>
				</g>
			</g>
		</g>
	</g>
</g>
</svg>
